<svg id="logo" xmlns="http://www.w3.org/2000/svg" viewBox="0 0 128 117.91">
  <defs>
    <style>
      .cls-1 {
      fill: #c00;
      }
    </style>
  </defs>
  <title>logo</title>
  <path class="cls-1"
        d="M1023.76,532.13c-.17-1.12-.32-2.27-.47-3.39-.33-2.48-.68-5-1.27-7.57a62.85,62.85,0,0,0-26.78-38.62c-.24-.16-.5-.33-.79-.5a3.1,3.1,0,0,0-.54-.24l-.32-.13-1.74-.7-.67,1.75c-4.1,10.84-8.54,21.76-12.83,32.32-6.35,15.63-12.9,31.76-18.57,48.06-5.66-16.3-12.21-32.43-18.56-48.06-4.29-10.56-8.73-21.48-12.83-32.32l-.67-1.75-1.74.7-.32.13a3.1,3.1,0,0,0-.54.24c-.29.17-.55.34-.79.5a62.85,62.85,0,0,0-26.78,38.62c-.59,2.52-.94,5.09-1.27,7.57-.15,1.12-.3,2.27-.47,3.39l0,.14v6.27l0,.14.12.69c.07.46.14.9.18,1.31a63.25,63.25,0,0,0,22.6,43.51,4.93,4.93,0,0,0,1,.63l.65.33,2.69,1.47.45-45.59c4.51,11.93,9.54,23.72,14.43,35.19,2.67,6.26,5.43,12.74,8.07,19.14a4.27,4.27,0,0,0,3.84,2.86c1,.09,2,.25,3.08.43l1.4.22.14,0H965.1l.14,0,1.4-.22c1.07-.18,2.07-.34,3.08-.43a4.27,4.27,0,0,0,3.84-2.86c2.64-6.4,5.4-12.88,8.07-19.14,4.89-11.47,9.92-23.26,14.43-35.19l.45,45.59,2.69-1.47.65-.33a4.93,4.93,0,0,0,1-.63,63.25,63.25,0,0,0,22.6-43.51c0-.41.11-.85.18-1.31,0-.23.08-.46.11-.69l0-.14v-6.27Zm-3.65,6.14-.09.51c-.08.5-.16,1-.22,1.56a59.48,59.48,0,0,1-19.67,39.6l-.57-57.05-3.43,7.5-.21.43c-.11.24-.22.46-.31.71-5.17,14.65-11.37,29.18-17.36,43.24-2.68,6.28-5.45,12.76-8.09,19.19-.22.53-.3.55-.76.59-1.15.11-2.27.29-3.35.46l-1.22.2H954.74l-1.22-.2c-1.08-.17-2.21-.35-3.35-.46-.46,0-.54-.06-.76-.59-2.64-6.43-5.41-12.91-8.09-19.19-6-14.06-12.19-28.59-17.36-43.24a6.43,6.43,0,0,0-.32-.71c0-.12-.12-.26-.2-.43l-3.43-7.5-.57,57.05a59.48,59.48,0,0,1-19.67-39.6c-.06-.54-.14-1.06-.22-1.56l-.09-.51v-5.72c.17-1.11.32-2.23.47-3.32a72.74,72.74,0,0,1,1.2-7.21,59.19,59.19,0,0,1,24.59-36c3.9,10.21,8.06,20.45,12.09,30.38,6.49,16,13.18,32.44,18.9,49h-.11l.54,1.26c.14.4.28.8.41,1.2l.1,0,.54,1.27,1.59,3.69,1.6-3.69.54-1.27.1,0c.13-.4.27-.8.41-1.2l.54-1.26h-.11c5.72-16.6,12.41-33.08,18.9-49,4-9.93,8.19-20.17,12.09-30.38a59.19,59.19,0,0,1,24.59,36,72.74,72.74,0,0,1,1.2,7.21c.15,1.09.3,2.21.47,3.32Z"
        transform="translate(-895.78 -480.98)"/>
</svg>
